<svg width="152" height="48" viewBox="0 0 152 48" fill="none" xmlns="http://www.w3.org/2000/svg">
<g clip-path="url(#clip0_11202_3142)">
<path fill-rule="evenodd" clip-rule="evenodd" d="M136.075 36C139.756 36 142.778 35.5334 142.778 34.9703C142.778 34.4072 139.774 33.9407 136.075 33.9407C132.393 33.9407 129.372 34.4072 129.372 34.9703C129.372 35.5495 132.376 36 136.075 36Z" fill="#D4D1BA"/>
<path fill-rule="evenodd" clip-rule="evenodd" d="M133.766 31.447C133.557 31.447 133.384 31.6079 133.384 31.801V34.2946C133.384 34.4877 133.557 34.6486 133.766 34.6486C133.974 34.6486 134.148 34.4877 134.148 34.2946V31.801C134.165 31.6079 133.991 31.447 133.766 31.447Z" fill="#FF8A45"/>
<path fill-rule="evenodd" clip-rule="evenodd" d="M135.398 31.4468C135.19 31.4468 135.016 31.6077 135.016 31.8007V34.2944C135.016 34.4875 135.19 34.6483 135.398 34.6483C135.607 34.6483 135.78 34.4875 135.78 34.2944V31.8007C135.798 31.6077 135.624 31.4468 135.398 31.4468Z" fill="#FF8A45"/>
<path fill-rule="evenodd" clip-rule="evenodd" d="M141.32 29.6613C141.216 25.9932 141.094 19.4935 145.193 16.6459C149.291 13.8144 151.392 17.8525 147.624 19.9923C143.855 22.1159 142.362 26.0415 141.32 29.6613Z" fill="#1CC7D0"/>
<path fill-rule="evenodd" clip-rule="evenodd" d="M141.32 29.6613C142.64 26.685 145.002 21.4242 148.978 21.0863C152.955 20.7646 152.903 24.9958 149.43 24.9153C145.974 24.8349 143.439 27.2481 141.32 29.6613Z" fill="#1CC7D0"/>
<path fill-rule="evenodd" clip-rule="evenodd" d="M141.32 29.6612C143.265 28.0202 146.738 25.1565 149.482 26.717C152.226 28.2615 150.68 31.4148 148.405 29.7899C146.148 28.1489 143.595 28.8085 141.32 29.6612Z" fill="#1CC7D0"/>
<path fill-rule="evenodd" clip-rule="evenodd" d="M141.32 29.6612C139.253 26.3631 135.607 20.4909 138.437 15.1174C141.268 9.74396 145.662 12.0446 142.814 16.5332C139.965 21.0379 140.486 25.6391 141.32 29.6612Z" fill="#1CC7D0"/>
<path fill-rule="evenodd" clip-rule="evenodd" d="M141.32 29.6611C137.812 28.4545 131.595 26.2665 131.439 20.3943C131.282 14.5221 136.371 13.4924 136.075 18.7211C135.78 23.9337 138.541 27.1192 141.32 29.6611Z" fill="#1CC7D0"/>
<path d="M137.707 19.075C136.908 18.335 135.797 17.8684 134.581 17.8684C133.366 17.8684 132.254 18.335 131.456 19.075C130.657 19.8151 130.153 20.8447 130.153 21.9709V29.0336C130.153 30.1277 130.622 31.0929 131.386 31.8169C132.168 32.557 133.262 33.0396 134.46 33.1201C135.988 33.2327 137.707 33.1844 139.062 32.7179C140.451 32.2352 141.458 31.3182 141.493 29.645C141.493 29.6289 141.493 29.6128 141.493 29.6128C141.476 29.5002 141.372 29.4198 141.25 29.4359C141.25 29.4359 139.027 29.6772 138.992 28.3419V28.3258V21.9548C139.01 20.8447 138.506 19.8151 137.707 19.075Z" fill="#4AD0D7"/>
<path d="M130.17 24.4004V29.0338C130.17 29.5647 130.275 30.0635 130.483 30.53C131.299 29.8865 131.855 28.8086 131.855 27.5698C131.855 26.1862 131.16 24.9796 130.17 24.4004Z" fill="#FF8A45"/>
<path d="M141.442 29.5002C141.389 29.452 141.32 29.4198 141.251 29.4359C141.251 29.4359 139.028 29.6772 138.993 28.3419V28.3258V24.0142C138.958 24.0142 138.906 24.0142 138.871 24.0142C137.187 24.0142 135.815 25.6069 135.815 27.5697C135.815 29.5324 137.187 31.1252 138.871 31.1252C139.965 31.1091 140.903 30.4655 141.442 29.5002Z" fill="#FF8A45"/>
<path fill-rule="evenodd" clip-rule="evenodd" d="M131.699 23.596C132.897 23.596 133.87 22.6951 133.87 21.585C133.87 20.4749 132.897 19.5579 131.699 19.5579C130.501 19.5579 129.528 20.4588 129.528 21.585C129.528 22.6951 130.501 23.596 131.699 23.596Z" fill="white"/>
<path fill-rule="evenodd" clip-rule="evenodd" d="M131.734 20.6199C131.768 20.6199 131.803 20.6199 131.855 20.6199C131.699 20.7003 131.595 20.8451 131.595 21.0221C131.595 21.2634 131.82 21.4725 132.081 21.4725C132.341 21.4725 132.567 21.2795 132.567 21.0221C132.567 21.006 132.567 21.006 132.567 20.9899C132.724 21.1669 132.81 21.376 132.81 21.6013C132.81 22.1483 132.324 22.5826 131.751 22.5826C131.161 22.5826 130.692 22.1322 130.692 21.6013C130.657 21.0543 131.143 20.6199 131.734 20.6199ZM132.446 21.5047C132.341 21.5047 132.255 21.5852 132.255 21.6817C132.255 21.7782 132.341 21.8587 132.446 21.8587C132.55 21.8587 132.637 21.7782 132.637 21.6817C132.637 21.5852 132.55 21.5047 132.446 21.5047Z" fill="#1CC7D0"/>
<path fill-rule="evenodd" clip-rule="evenodd" d="M135.989 23.5963C137.187 23.5963 138.159 22.6953 138.159 21.5852C138.159 20.4751 137.187 19.5581 135.989 19.5581C134.79 19.5581 133.818 20.459 133.818 21.5852C133.8 22.6953 134.79 23.5963 135.989 23.5963Z" fill="white"/>
<path fill-rule="evenodd" clip-rule="evenodd" d="M136.006 20.6201C136.041 20.6201 136.075 20.6201 136.127 20.6201C135.971 20.7006 135.867 20.8454 135.867 21.0223C135.867 21.2636 136.093 21.4728 136.353 21.4728C136.614 21.4728 136.839 21.2797 136.839 21.0223C136.839 21.0062 136.839 21.0062 136.839 20.9901C136.996 21.1671 137.083 21.3763 137.083 21.6015C137.083 22.1485 136.596 22.5829 136.023 22.5829C135.433 22.5829 134.964 22.1324 134.964 21.6015C134.946 21.0545 135.415 20.6201 136.006 20.6201ZM136.735 21.505C136.631 21.505 136.544 21.5854 136.544 21.6819C136.544 21.7785 136.631 21.8589 136.735 21.8589C136.839 21.8589 136.926 21.7785 136.926 21.6819C136.926 21.5854 136.839 21.505 136.735 21.505Z" fill="#1CC7D0"/>
<path d="M136.11 23.8374L133.87 25.2532C133.852 25.2532 133.852 25.2692 133.835 25.2692C133.818 25.2692 133.818 25.2692 133.8 25.2532L131.56 23.8374C131.525 23.8213 131.508 23.7891 131.491 23.7569C131.456 23.6765 131.491 23.58 131.56 23.5317L133.835 22.8882L136.11 23.5317C136.18 23.5639 136.214 23.6604 136.18 23.7569C136.18 23.7891 136.145 23.8213 136.11 23.8374Z" fill="#EE7128"/>
<path d="M133.818 25.2532L131.577 23.8374C131.543 23.8213 131.525 23.7891 131.508 23.7569C131.473 23.6765 131.508 23.58 131.577 23.5317L133.852 22.8882V25.2532H133.818Z" fill="#FF8A45"/>
<path d="M136.11 23.8372L133.87 25.2529C133.852 25.2529 133.852 25.269 133.835 25.269C133.818 25.269 133.818 25.269 133.8 25.2529L131.56 23.8372C131.525 23.8211 131.508 23.7889 131.491 23.7567C131.491 23.7406 131.473 23.7085 131.473 23.6924H136.179C136.179 23.7085 136.179 23.7406 136.162 23.7567C136.179 23.7889 136.145 23.8211 136.11 23.8372Z" fill="#EE7128"/>
<path d="M136.11 23.8372L133.87 25.2529C133.852 25.2529 133.852 25.269 133.835 25.269V23.6924H136.197C136.197 23.7085 136.197 23.7406 136.179 23.7567C136.179 23.7889 136.145 23.8211 136.11 23.8372Z" fill="#CD5F1E"/>
<path fill-rule="evenodd" clip-rule="evenodd" d="M128.382 34.1018C135.016 34.8258 140.608 34.6971 145.852 34.311C146.286 34.327 146.321 34.681 146.026 34.9545C143.942 35.6302 131.525 36.1772 128.556 35.8072C126.889 35.5819 126.819 34.1179 128.382 34.1018Z" fill="#7E6B67"/>
<path fill-rule="evenodd" clip-rule="evenodd" d="M145.175 33.2814C144.81 33.9732 143.994 34.6006 143.647 34.8259C143.699 33.941 143.925 33.0401 144.237 32.5092C144.723 31.6887 145.731 32.2035 145.175 33.2814Z" fill="#BDDBBF"/>
<path fill-rule="evenodd" clip-rule="evenodd" d="M144.22 32.5896C144.237 33.394 143.82 34.4236 143.646 34.8259C143.282 34.0536 143.039 33.1366 143.056 32.5091C143.091 31.5117 144.185 31.3347 144.22 32.5896Z" fill="#4AD0D7"/>
<path fill-rule="evenodd" clip-rule="evenodd" d="M143.039 32.6057C143.456 33.2653 143.595 34.3754 143.647 34.8259C142.969 34.4237 142.327 33.8123 142.032 33.2653C141.58 32.4287 142.396 31.576 143.039 32.6057Z" fill="#1CC7D0"/>
<path d="M0 33.4439V33.8688H13.6476L13.9411 27.3626H13.4715C13.3933 28.7435 13.2661 29.7881 13.09 30.4962C12.9334 31.2044 12.6008 31.8063 12.0921 32.302C11.5833 32.7977 10.9279 33.1164 10.1256 33.258C9.32339 33.3819 8.17878 33.4439 6.69173 33.4439H5.1949V17.0323H7.92442V16.6074H0V17.0323H2.14253V33.4439H0Z" fill="#1CC7D0"/>
<path d="M35.9543 31.0805V22.0514H39.5056V21.6531H35.9543V18.1477H35.5727C35.0836 20.4846 33.7139 21.6531 31.4638 21.6531H31.2583V22.0514H33.3422V30.4962C33.3422 31.8417 33.5084 32.8331 33.8411 33.4705C34.1933 34.0902 34.9466 34.4 36.101 34.4C36.9228 34.4 37.6468 34.1167 38.2729 33.5502C38.8991 32.9659 39.398 32.2489 39.7697 31.3991L39.3002 31.2398C39.0067 31.8417 38.6251 32.3994 38.1555 32.9128C37.7055 33.4263 37.2359 33.6829 36.7467 33.6829C36.5511 33.6829 36.3945 33.6387 36.2771 33.5502C36.0619 33.3908 35.9543 32.5676 35.9543 31.0805Z" fill="#1CC7D0"/>
<path d="M47.5504 33.8688V33.4705H45.6134V28.6639C45.6134 26.9112 45.8579 25.4063 46.3471 24.1493C46.621 23.4412 47.0319 22.8835 47.5798 22.4763C48.1472 22.0691 48.744 21.8655 49.3701 21.8655C49.9962 21.8655 50.4658 21.9806 50.7789 22.2107C51.1115 22.4409 51.3561 22.6976 51.5126 22.9809C51.8452 23.6182 52.0116 24.9371 52.0116 26.9377V33.4705H50.0745V33.8688H56.5608V33.4705H54.6237V26.5659C54.6237 24.7601 54.3106 23.4058 53.6845 22.5029C53.0584 21.5823 51.8942 21.1219 50.1919 21.1219C49.2136 21.1219 48.3233 21.3875 47.5211 21.9186C46.7384 22.432 46.1807 23.1136 45.8482 23.9634H45.6721V15.2C44.4589 15.4301 43.0795 15.5452 41.5338 15.5452H40.9174V15.9435H43.0012V33.4705H41.0642V33.8688H47.5504Z" fill="#1CC7D0"/>
<path fill-rule="evenodd" clip-rule="evenodd" d="M21.8843 21.1219C24.2128 21.1219 25.7487 21.6 26.4922 22.556C27.2553 23.4943 27.6369 25.1408 27.6369 27.4954V32.1958C27.6369 32.9217 27.813 33.2846 28.1652 33.2846C28.8891 33.2846 29.3685 32.2666 29.6033 30.2307L30.1316 30.2838C29.8381 33.0279 28.85 34.4 27.1673 34.4C26.6781 34.4 26.2966 34.2406 26.0226 33.9219C25.7683 33.6033 25.6019 33.258 25.5237 32.8863C25.465 32.4968 25.4356 32.0188 25.4356 31.4522H25.2595C25.0052 32.3906 24.4866 33.1164 23.704 33.6298C22.9214 34.1433 21.9137 34.4 20.681 34.4C19.4678 34.4 18.4015 34.1078 17.4819 33.5236C16.5622 32.9217 16.1024 32.063 16.1024 30.9477C16.1024 30.1156 16.3666 29.4251 16.8949 28.8763C17.9906 27.7433 20.4755 27.1767 24.3497 27.1767H25.0247V25.8755C25.0247 24.4769 24.7606 23.4234 24.2323 22.7153C23.704 22.0071 22.7843 21.6531 21.4734 21.6531C20.182 21.6531 19.233 21.8921 18.6265 22.3701C18.02 22.8481 17.7167 23.3438 17.7167 23.8572C17.7167 24.0165 17.7949 24.0962 17.9515 24.0962C18.1276 24.0962 18.2254 24.0165 18.245 23.8572C18.3624 23.3969 18.7537 23.1668 19.4189 23.1668C19.8494 23.1668 20.1919 23.3084 20.4462 23.5917C20.7005 23.8572 20.8277 24.1936 20.8277 24.6008C20.8277 24.9902 20.6614 25.3267 20.3288 25.6099C20.0158 25.8755 19.595 26.0083 19.0668 26.0083C18.558 26.0083 18.108 25.8312 17.7167 25.4771C17.3449 25.1053 17.159 24.6539 17.159 24.1228C17.159 23.1313 17.6188 22.3878 18.5385 21.8921C19.4581 21.3786 20.5734 21.1219 21.8843 21.1219ZM25.0247 27.6547V29.434C25.0247 30.6201 24.7312 31.6205 24.1442 32.4348C23.5768 33.2492 22.7942 33.6564 21.7963 33.6564C20.7984 33.6564 20.0745 33.3997 19.6244 32.8863C19.1743 32.3728 18.9494 31.6912 18.9494 30.8414C18.9494 29.4429 19.5755 28.54 20.8277 28.1327C21.4343 27.9203 22.0213 27.7875 22.5887 27.7344C23.1757 27.6813 23.6747 27.6547 24.0855 27.6547H25.0247Z" fill="#1CC7D0"/>
<path fill-rule="evenodd" clip-rule="evenodd" d="M64.2179 21.1219C66.5462 21.1219 68.0822 21.6 68.8258 22.556C69.5889 23.4943 69.9704 25.1408 69.9704 27.4954V32.1958C69.9704 32.9217 70.1465 33.2846 70.4987 33.2846C71.2226 33.2846 71.702 32.2666 71.9368 30.2307L72.4651 30.2838C72.1716 33.0279 71.1835 34.4 69.5008 34.4C69.0116 34.4 68.63 34.2406 68.3562 33.9219C68.1017 33.6033 67.9355 33.258 67.8572 32.8863C67.7985 32.4968 67.7692 32.0188 67.7692 31.4522H67.5931C67.3386 32.3906 66.8202 33.1164 66.0375 33.6298C65.2548 34.1433 64.2472 34.4 63.0145 34.4C61.8014 34.4 60.735 34.1078 59.8154 33.5236C58.8957 32.9217 58.436 32.063 58.436 30.9477C58.436 30.1156 58.7001 29.4251 59.2284 28.8763C60.3241 27.7433 62.8091 27.1767 66.6832 27.1767H67.3583V25.8755C67.3583 24.4769 67.0941 23.4234 66.5658 22.7153C66.0375 22.0071 65.1179 21.6531 63.807 21.6531C62.5156 21.6531 61.5666 21.8921 60.96 22.3701C60.3534 22.8481 60.0502 23.3438 60.0502 23.8572C60.0502 24.0165 60.1284 24.0962 60.285 24.0962C60.4611 24.0962 60.5589 24.0165 60.5785 23.8572C60.6959 23.3969 61.0872 23.1668 61.7525 23.1668C62.1829 23.1668 62.5253 23.3084 62.7797 23.5917C63.0341 23.8572 63.1613 24.1936 63.1613 24.6008C63.1613 24.9902 62.9949 25.3267 62.6623 25.6099C62.3492 25.8755 61.9286 26.0083 61.4003 26.0083C60.8915 26.0083 60.4415 25.8312 60.0502 25.4771C59.6784 25.1053 59.4926 24.6539 59.4926 24.1228C59.4926 23.1313 59.9523 22.3878 60.872 21.8921C61.7916 21.3786 62.9068 21.1219 64.2179 21.1219ZM67.3583 27.6547V29.434C67.3583 30.6201 67.0648 31.6205 66.4778 32.4348C65.9103 33.2492 65.1277 33.6564 64.1298 33.6564C63.1319 33.6564 62.4079 33.3997 61.9579 32.8863C61.5079 32.3728 61.2829 31.6912 61.2829 30.8414C61.2829 29.4429 61.909 28.54 63.1613 28.1327C63.7678 27.9203 64.3548 27.7875 64.9222 27.7344C65.5092 27.6813 66.0082 27.6547 66.4191 27.6547H67.3583Z" fill="#1CC7D0"/>
<path d="M77.9733 24.0697H78.1467C78.4935 23.1668 79.0041 22.4497 79.6785 21.9186C80.3722 21.3875 81.191 21.1219 82.1352 21.1219C83.8693 21.1219 85.1506 21.7504 85.9792 23.0074C86.8269 24.2467 87.2508 25.8224 87.2508 27.7344C87.2508 29.6464 86.8173 31.2398 85.9503 32.5145C85.0832 33.7715 83.7537 34.4 81.9618 34.4C80.1699 34.4 78.8982 33.6741 78.1467 32.2224H77.9733V33.8688H73.4935V33.4705H75.401V15.9435H73.3489V15.5452H73.9559C75.4587 15.5452 76.7979 15.4301 77.9733 15.2V24.0697ZM77.9155 27.7344V28.6904C77.9155 30.0713 78.2045 31.2487 78.7826 32.2224C79.3606 33.1784 80.2661 33.6564 81.4993 33.6564C82.8288 33.6564 83.667 32.9659 84.0138 31.585C84.3029 30.4697 84.4474 29.3543 84.4474 28.239C84.4474 27.1236 84.4088 26.2738 84.3317 25.6896C84.2739 25.1053 84.1487 24.5034 83.956 23.8838C83.7826 23.2464 83.4743 22.7507 83.0312 22.3966C82.6072 22.0425 82.087 21.8655 81.4704 21.8655C80.8731 21.8655 80.3336 22.0691 79.8519 22.4763C79.3895 22.8658 79.0233 23.3703 78.7537 23.99C78.1948 25.247 77.9155 26.4951 77.9155 27.7344ZM94.5718 33.4705H96.4794V33.8688H90.0923V33.4705H91.9996V22.0514H89.9478V21.6531H90.5547C92.0574 21.6531 93.3968 21.538 94.5718 21.3078V33.4705ZM91.9707 18.7585C91.6627 18.4575 91.5082 18.0857 91.5082 17.6431C91.5082 17.2005 91.6627 16.8287 91.9707 16.5278C92.2985 16.2268 92.7031 16.0763 93.1845 16.0763C93.6668 16.0763 94.0715 16.2268 94.3984 16.5278C94.7263 16.8287 94.8898 17.2005 94.8898 17.6431C94.8898 18.0857 94.7263 18.4575 94.3984 18.7585C94.0715 19.0417 93.6668 19.1834 93.1845 19.1834C92.7031 19.1834 92.2985 19.0417 91.9707 18.7585ZM108.876 23.1402C108.876 22.6799 108.692 22.2993 108.327 21.9983C107.961 21.6973 107.469 21.5468 106.853 21.5468C106.236 21.5468 105.658 21.777 105.118 22.2373C104.598 22.6799 104.194 23.2641 103.904 23.99C103.384 25.3886 103.124 26.9023 103.124 28.5311V33.4705H105.234V33.8688H98.6443V33.4705H100.552V22.0514H98.4998V21.6531H99.1068C100.648 21.6531 102.007 21.538 103.182 21.3078V24.0697H103.355C104.165 22.1045 105.379 21.1219 106.997 21.1219C107.71 21.1219 108.288 21.3344 108.731 21.7593C109.194 22.1665 109.425 22.6799 109.425 23.2995C109.425 23.9014 109.232 24.3883 108.847 24.7601C108.481 25.1142 108.037 25.2912 107.517 25.2912C107.016 25.2912 106.602 25.1585 106.274 24.8929C105.966 24.6097 105.812 24.2732 105.812 23.8838C105.812 23.4766 105.938 23.1402 106.188 22.8746C106.438 22.5914 106.776 22.4497 107.199 22.4497C107.854 22.4497 108.24 22.6799 108.355 23.1402C108.394 23.2995 108.49 23.3792 108.644 23.3792C108.799 23.3792 108.876 23.2995 108.876 23.1402ZM124.605 33.8688H120.125V31.4522H119.951C119.605 32.3551 119.084 33.0722 118.391 33.6033C117.716 34.1344 116.907 34.4 115.963 34.4C114.229 34.4 112.937 33.7803 112.09 32.541C111.261 31.284 110.847 29.6995 110.847 27.7875C110.847 25.8755 111.281 24.291 112.148 23.034C113.015 21.7593 114.344 21.1219 116.136 21.1219C117.928 21.1219 119.2 21.8478 119.951 23.2995H120.125V15.9435H118.073V15.5452H118.68C120.183 15.5452 121.521 15.4301 122.697 15.2V33.4705H124.605V33.8688ZM120.183 27.7875V26.8315C120.183 25.4506 119.894 24.2821 119.316 23.3261C118.738 22.3524 117.832 21.8655 116.599 21.8655C115.269 21.8655 114.431 22.556 114.084 23.9369C113.795 25.0522 113.651 26.1676 113.651 27.2829C113.651 28.3983 113.68 29.2481 113.738 29.8323C113.814 30.4165 113.94 31.0273 114.113 31.6647C114.306 32.2844 114.614 32.7712 115.038 33.1253C115.481 33.4794 116.001 33.6564 116.599 33.6564C117.215 33.6564 117.755 33.4616 118.217 33.0722C118.699 32.6649 119.074 32.1516 119.345 31.5319C119.903 30.2749 120.183 29.0268 120.183 27.7875Z" fill="#FF8A45"/>
</g>
<defs>
<clipPath id="clip0_11202_3142">
<rect width="152" height="24" fill="white" transform="translate(0 12)"/>
</clipPath>
</defs>
</svg>
