<svg width="16" height="16" viewBox="0 0 16 16" fill="none" xmlns="http://www.w3.org/2000/svg">
<g clip-path="url(#clip0_11202_4130)">
<path fill-rule="evenodd" clip-rule="evenodd" d="M5.70263 15.9999C8.08322 15.9999 10.0371 15.6889 10.0371 15.3135C10.0371 14.9381 8.09445 14.6271 5.70263 14.6271C3.32204 14.6271 1.36816 14.9381 1.36816 15.3135C1.36816 15.6996 3.31081 15.9999 5.70263 15.9999Z" fill="#D4D1BA"/>
<path fill-rule="evenodd" clip-rule="evenodd" d="M4.2092 12.9648C4.07445 12.9648 3.96216 13.0721 3.96216 13.2008V14.8633C3.96216 14.992 4.07445 15.0992 4.2092 15.0992C4.34395 15.0992 4.45624 14.992 4.45624 14.8633V13.2008C4.46747 13.0721 4.35518 12.9648 4.2092 12.9648Z" fill="#FF8A45"/>
<path fill-rule="evenodd" clip-rule="evenodd" d="M5.26486 12.9646C5.13011 12.9646 5.01782 13.0719 5.01782 13.2006V14.863C5.01782 14.9917 5.13011 15.099 5.26486 15.099C5.39961 15.099 5.51191 14.9917 5.51191 14.863V13.2006C5.52313 13.0719 5.41084 12.9646 5.26486 12.9646Z" fill="#FF8A45"/>
<path fill-rule="evenodd" clip-rule="evenodd" d="M9.09425 11.7742C9.02687 9.32884 8.94827 4.99574 11.5984 3.09732C14.2484 1.20964 15.6072 3.90174 13.1704 5.32823C10.7337 6.74399 9.768 9.36101 9.09425 11.7742Z" fill="#1CC7D0"/>
<path fill-rule="evenodd" clip-rule="evenodd" d="M9.09424 11.7741C9.94766 9.78989 11.4748 6.28266 14.0463 6.05742C16.6178 5.84291 16.5841 8.66372 14.3383 8.61009C12.1037 8.55646 10.4642 10.1653 9.09424 11.7741Z" fill="#1CC7D0"/>
<path fill-rule="evenodd" clip-rule="evenodd" d="M9.09424 11.7741C10.3519 10.6801 12.5977 8.77093 14.372 9.81131C16.1462 10.841 15.1468 12.9432 13.6757 11.8599C12.216 10.7659 10.5653 11.2056 9.09424 11.7741Z" fill="#1CC7D0"/>
<path fill-rule="evenodd" clip-rule="evenodd" d="M9.09419 11.7741C7.75791 9.57541 5.39978 5.66061 7.23014 2.07829C9.0605 -1.50403 11.9015 0.0297222 10.0599 3.02214C8.21831 6.02528 8.55519 9.09276 9.09419 11.7741Z" fill="#1CC7D0"/>
<path fill-rule="evenodd" clip-rule="evenodd" d="M9.09408 11.774C6.82579 10.9696 2.80574 9.51097 2.70467 5.59616C2.60361 1.68135 5.89376 0.994918 5.70287 4.48071C5.51197 7.95577 7.29741 10.0794 9.09408 11.774Z" fill="#1CC7D0"/>
<path d="M6.75799 4.71664C6.24144 4.22327 5.52278 3.91223 4.73673 3.91223C3.95069 3.91223 3.23202 4.22327 2.71548 4.71664C2.19894 5.21002 1.87329 5.89645 1.87329 6.64723V11.3557C1.87329 12.0851 2.17648 12.7286 2.67056 13.2112C3.17588 13.7046 3.88331 14.0264 4.65813 14.08C5.6463 14.1551 6.75799 14.1229 7.63386 13.8119C8.5322 13.4901 9.18349 12.8787 9.20595 11.7633C9.20595 11.7526 9.20595 11.7418 9.20595 11.7418C9.19472 11.6668 9.12735 11.6131 9.04874 11.6239C9.04874 11.6239 7.61141 11.7847 7.58895 10.8945V10.8838V6.63651C7.60018 5.89645 7.27453 5.21002 6.75799 4.71664Z" fill="#4AD0D7"/>
<path d="M1.88477 8.26697V11.3559C1.88477 11.7099 1.95214 12.0423 2.08689 12.3534C2.61466 11.9244 2.97399 11.2058 2.97399 10.3799C2.97399 9.4575 2.52483 8.65309 1.88477 8.26697Z" fill="#FF8A45"/>
<path d="M9.17268 11.6668C9.13899 11.6346 9.09407 11.6132 9.04916 11.6239C9.04916 11.6239 7.61182 11.7848 7.58936 10.8946V10.8838V8.0094C7.56691 8.0094 7.53322 8.0094 7.51076 8.0094C6.42153 8.0094 5.53442 9.07122 5.53442 10.3797C5.53442 11.6882 6.42153 12.7501 7.51076 12.7501C8.2182 12.7393 8.82457 12.3103 9.17268 11.6668Z" fill="#FF8A45"/>
<path fill-rule="evenodd" clip-rule="evenodd" d="M2.87313 7.73067C3.64794 7.73067 4.27678 7.13005 4.27678 6.38999C4.27678 5.64993 3.64794 5.03857 2.87313 5.03857C2.09832 5.03857 1.46948 5.6392 1.46948 6.38999C1.46948 7.13005 2.09832 7.73067 2.87313 7.73067Z" fill="white"/>
<path fill-rule="evenodd" clip-rule="evenodd" d="M2.89559 5.74646C2.91805 5.74646 2.9405 5.74646 2.97419 5.74646C2.87313 5.80009 2.80575 5.89662 2.80575 6.0146C2.80575 6.17548 2.95173 6.31491 3.12017 6.31491C3.28861 6.31491 3.43459 6.18621 3.43459 6.0146C3.43459 6.00387 3.43459 6.00387 3.43459 5.99315C3.53565 6.11113 3.59179 6.25056 3.59179 6.40072C3.59179 6.76538 3.27738 7.05497 2.90681 7.05497C2.52502 7.05497 2.22184 6.75466 2.22184 6.40072C2.19938 6.03605 2.5138 5.74646 2.89559 5.74646ZM3.35598 6.33636C3.28861 6.33636 3.23246 6.38999 3.23246 6.45434C3.23246 6.5187 3.28861 6.57232 3.35598 6.57232C3.42336 6.57232 3.4795 6.5187 3.4795 6.45434C3.4795 6.38999 3.42336 6.33636 3.35598 6.33636Z" fill="#1CC7D0"/>
<path fill-rule="evenodd" clip-rule="evenodd" d="M5.64671 7.7308C6.42153 7.7308 7.05036 7.13017 7.05036 6.39011C7.05036 5.65005 6.42153 5.0387 5.64671 5.0387C4.8719 5.0387 4.24307 5.63932 4.24307 6.39011C4.23184 7.13017 4.8719 7.7308 5.64671 7.7308Z" fill="white"/>
<path fill-rule="evenodd" clip-rule="evenodd" d="M5.6577 5.74658C5.68015 5.74658 5.70261 5.74658 5.7363 5.74658C5.63524 5.80021 5.56786 5.89674 5.56786 6.01472C5.56786 6.1756 5.71384 6.31503 5.88228 6.31503C6.05072 6.31503 6.1967 6.18633 6.1967 6.01472C6.1967 6.00399 6.1967 6.00399 6.1967 5.99327C6.29776 6.11125 6.35391 6.25068 6.35391 6.40084C6.35391 6.7655 6.03949 7.05509 5.66893 7.05509C5.28713 7.05509 4.98394 6.75478 4.98394 6.40084C4.97272 6.03617 5.2759 5.74658 5.6577 5.74658ZM6.12932 6.33648C6.06195 6.33648 6.0058 6.39011 6.0058 6.45447C6.0058 6.51882 6.06195 6.57244 6.12932 6.57244C6.1967 6.57244 6.25285 6.51882 6.25285 6.45447C6.25285 6.39011 6.1967 6.33648 6.12932 6.33648Z" fill="#1CC7D0"/>
<path d="M5.72527 7.89147L4.2767 8.83531C4.26547 8.83531 4.26547 8.84604 4.25424 8.84604C4.24301 8.84604 4.24302 8.84604 4.23179 8.83531L2.78322 7.89147C2.76076 7.88075 2.74953 7.85929 2.7383 7.83784C2.71584 7.78422 2.7383 7.71986 2.78322 7.68769L4.25424 7.25867L5.72527 7.68769C5.77018 7.70914 5.79264 7.77349 5.77018 7.83784C5.77018 7.85929 5.74773 7.88075 5.72527 7.89147Z" fill="#EE7128"/>
<path d="M4.24302 8.83531L2.79445 7.89147C2.77199 7.88075 2.76076 7.85929 2.74953 7.83784C2.72707 7.78422 2.74953 7.71986 2.79445 7.68769L4.26547 7.25867V8.83531H4.24302Z" fill="#FF8A45"/>
<path d="M5.72524 7.89145L4.27668 8.83529C4.26545 8.83529 4.26545 8.84602 4.25422 8.84602C4.24299 8.84602 4.24299 8.84602 4.23176 8.83529L2.7832 7.89145C2.76074 7.88073 2.74951 7.85927 2.73828 7.83782C2.73828 7.8271 2.72705 7.80565 2.72705 7.79492H5.77016C5.77016 7.80565 5.77016 7.8271 5.75893 7.83782C5.77016 7.85927 5.7477 7.88073 5.72524 7.89145Z" fill="#EE7128"/>
<path d="M5.72517 7.89145L4.27661 8.83529C4.26538 8.83529 4.26538 8.84602 4.25415 8.84602V7.79492H5.78132C5.78132 7.80565 5.78132 7.8271 5.77009 7.83782C5.77009 7.85927 5.74763 7.88073 5.72517 7.89145Z" fill="#CD5F1E"/>
<path fill-rule="evenodd" clip-rule="evenodd" d="M0.728199 14.7344C5.01775 15.217 8.63355 15.1312 12.0248 14.8738C12.3055 14.8845 12.328 15.1205 12.1371 15.3028C10.7896 15.7533 2.76068 16.118 0.840491 15.8713C-0.237511 15.7211 -0.282428 14.7451 0.728199 14.7344Z" fill="#7E6B67"/>
<path fill-rule="evenodd" clip-rule="evenodd" d="M11.5868 14.1875C11.351 14.6487 10.8232 15.067 10.5986 15.2171C10.6323 14.6272 10.7783 14.0266 10.9804 13.6726C11.2948 13.1256 11.9461 13.4689 11.5868 14.1875Z" fill="#BDDBBF"/>
<path fill-rule="evenodd" clip-rule="evenodd" d="M10.9692 13.7263C10.9805 14.2625 10.711 14.949 10.5987 15.2171C10.3628 14.7023 10.2056 14.0909 10.2169 13.6726C10.2393 13.0077 10.9468 12.8897 10.9692 13.7263Z" fill="#4AD0D7"/>
<path fill-rule="evenodd" clip-rule="evenodd" d="M10.2055 13.737C10.475 14.1767 10.5649 14.9168 10.5985 15.2171C10.1606 14.9489 9.74513 14.5414 9.55424 14.1767C9.26228 13.619 9.79005 13.0505 10.2055 13.737Z" fill="#1CC7D0"/>
</g>
<defs>
<clipPath id="clip0_11202_4130">
<rect width="16" height="16" fill="white"/>
</clipPath>
</defs>
</svg>
